<mxfile host="app.diagrams.net" modified="2022-04-21T01:41:56.047Z" agent="5.0 (Windows NT 10.0; Win64; x64) AppleWebKit/537.36 (KHTML, like Gecko) Chrome/100.0.4896.127 Safari/537.36" etag="xgPjHF52uwOf1kw-P59c" version="16.5.3" type="github">
  <diagram id="kpOTXltUzby0PFZDOnLK" name="Model 1">
    <mxGraphModel dx="782" dy="402" grid="1" gridSize="10" guides="1" tooltips="1" connect="1" arrows="1" fold="1" page="1" pageScale="1" pageWidth="850" pageHeight="1100" math="0" shadow="0">
      <root>
        <mxCell id="0" />
        <mxCell id="1" parent="0" />
        <mxCell id="9kA3Kka6Xvjqhs1QfRO9-20" value="&lt;br&gt;&lt;br&gt;&lt;br&gt;&lt;br&gt;&lt;br&gt;Cameras" style="rounded=0;whiteSpace=wrap;html=1;fontSize=10;dashed=1;strokeWidth=0;" vertex="1" parent="1">
          <mxGeometry x="411" y="250" width="180" height="40" as="geometry" />
        </mxCell>
        <mxCell id="9kA3Kka6Xvjqhs1QfRO9-6" style="edgeStyle=orthogonalEdgeStyle;rounded=0;orthogonalLoop=1;jettySize=auto;html=1;exitX=0.55;exitY=0.95;exitDx=0;exitDy=0;exitPerimeter=0;entryX=0;entryY=0.75;entryDx=0;entryDy=0;endArrow=none;endFill=0;" edge="1" parent="1" source="9kA3Kka6Xvjqhs1QfRO9-1" target="9kA3Kka6Xvjqhs1QfRO9-3">
          <mxGeometry relative="1" as="geometry">
            <Array as="points">
              <mxPoint x="166" y="195" />
            </Array>
          </mxGeometry>
        </mxCell>
        <mxCell id="9kA3Kka6Xvjqhs1QfRO9-1" value="Internet" style="ellipse;shape=cloud;whiteSpace=wrap;html=1;fillColor=#ffe6cc;strokeColor=#d79b00;" vertex="1" parent="1">
          <mxGeometry x="100" y="40" width="120" height="80" as="geometry" />
        </mxCell>
        <mxCell id="9kA3Kka6Xvjqhs1QfRO9-10" style="edgeStyle=none;rounded=0;orthogonalLoop=1;jettySize=auto;html=1;entryX=0;entryY=0.5;entryDx=0;entryDy=0;endArrow=none;endFill=0;" edge="1" parent="1" target="9kA3Kka6Xvjqhs1QfRO9-9">
          <mxGeometry relative="1" as="geometry">
            <mxPoint x="300.0000000000001" y="193" as="sourcePoint" />
          </mxGeometry>
        </mxCell>
        <mxCell id="9kA3Kka6Xvjqhs1QfRO9-3" value="Store Wi-Fi" style="image;html=1;image=img/lib/clip_art/networking/Wireless_Router_128x128.png" vertex="1" parent="1">
          <mxGeometry x="240" y="150" width="60" height="60" as="geometry" />
        </mxCell>
        <mxCell id="9kA3Kka6Xvjqhs1QfRO9-14" style="edgeStyle=none;rounded=0;orthogonalLoop=1;jettySize=auto;html=1;entryX=0.16;entryY=0.55;entryDx=0;entryDy=0;entryPerimeter=0;endArrow=none;endFill=0;" edge="1" parent="1">
          <mxGeometry relative="1" as="geometry">
            <mxPoint x="410.90999999999997" y="192.7036602492832" as="sourcePoint" />
            <mxPoint x="457.4000000000001" y="192.34999999999997" as="targetPoint" />
          </mxGeometry>
        </mxCell>
        <mxCell id="9kA3Kka6Xvjqhs1QfRO9-9" value="Jetson" style="shape=image;verticalLabelPosition=bottom;labelBackgroundColor=default;verticalAlign=top;aspect=fixed;imageAspect=0;image=data:image/png,iVBORw0KGgoAAAANSUhEUgAAAIYAAABWCAYAAAAKR+6+AAAAAXNSR0IArs4c6QAAAARnQU1BAACxjwv8YQUAAAAJcEhZcwAAFxEAABcRAcom8z8AAEAeSURBVHhe7b13eFVXlu1bt+/r7lvdZZfBmJyzAAFKSCgCAqGcc845RySCSAZjgk0wzqnKrrLdzuWMbbDJOYkgcs5gV72u6u7bXZ5vjLn2PhLuun/c+94Dys3+vvmtfXY8OvO3xhxr7SPpZ/eX+8v95f/FsmzVspG//fVzfh9/8Jtp1qb7y3+VpWHJkge+/PLLHouXLvB/6qnlmSuXPzp/xeML169YMv+bxxbM+tdFc2fImmUL5bnVize/9vKqvJffe/kh69T7y09hEZG/q5tZN+jVV5+dunDh7LinVi9buWLpglcXz2s5tfTR2edWLl0oKx6bJysfXyCL5zbL4wtmydyZ9TKvpU5m1FZIa1O1LFvYgv2tF55bu3TJ0y8uHWVd+v5yry9uhYV/CwD+2+pnVruuenr5uOeeWzNv8eK5NSuWLtr42OK5G6AEf3z80dZ/Xb6oVRgrHlsgj7a2yOwZtdJYXSKtM2p0ff6sBpnVVCNNtWUys7FKZtRXyMyGSmmoLpUZNaWyaE6DzG2p+Z8rl8577+mnl4fi1v/NvIP7y11fMgoz+u84uKNfc2tz4quvPp+0ePH8tWtWL/9w2ZKFB5c9Nv/WiscX/LBmxRJ54vGFsmzRXAVgwZwZMm/2DGltqZc5M+qkoaZMQZjZVCstjdVIfJlUl+XLrIYq3Tan2WyvryyWZsDRVFuubSPgqC7Nl/ktNfLYghZZPL9572OLWqrzKvN6WG/v/vL/1+Lm5va3bPOrS0fv2vXhP7TOm126ZFFr+Irlj32wcP7sNaufePzmooVzTj23dqU8sWyxrAYEAEIeW9gqC1qbZT4gaGmskXmzmqQFSW6urwIEdVJfVabJntFQLc0KQI3UVhRLC9Zn4PimOihDTblUluSjhJSZY3B8C46vqSiSGXXl0ohjmuoqsF4hVQCpsaoYalMNVSm/MX9O/dN1Myo99Ie4v/yfL15eXj9nW9VQNWLhipZeq1Y9kdnQUJX07LOr32yoq3z1uWdWnVswb/bxpYvmyfIlkP55M2XZ4vmyEArAaJ3ZKHNaEGjnzm6WhtpK7e1NdVWawBbCAI8wByoxo7EW+9HrkezK0kKpBwC4h4IwA+BUlRVqueD2msoSqasqldLCHKmrLFIQGi0YCEgDVIOv66Ey3FZdXihVJbkKSGNNCa5X9mXzrJpU/Gj/wJ/v/vK/WBYubOnFtqK2wqW1tWngypVLM2pqyvNee/XF1c2NNb9bu2bFvoXzZt1c9tjCf6YKLJjbIqtWPKbSTxVYOH8WenmNNCLJdej1lUhiHZLSCBBq8ZoQ1NdUSDMUgDDUVDJxlVKD5NYiGpH46iokDPu5XotzG3CtspIChaC22sBASIoLsjX5BKQaasL7FeRmSGFumpQX5SBypRaw1KDEVJcVaEmqxnojFIb3I0xN8CzzZzfKrBnVp5qba+YGhvkO1g/iv9LS2tr6N9bqz1oXtw5kW19fGfPOJ+/0Xfb4o6vLigvi1q5a8VJlWdGnz69duXPurBl/WPzo3JsvPLNaWiH1Lz33lMyfO1PX581pljokjG0jer32XCtBTfXojXXVUlWOhGB7BeAoK8pTCKrL8RoqwO1VFSXSBOnn+RVlRQoQ26pyrOPaFbiWwgGQeGwdoCgqzAVsRbhPqZSXFqhalBXnQVmwjv3luFcF1rPTk6QwJ00Vgu+JCsT3WF4MWAAe3xOBqcG+4vwslKkiwN2I8lX5p5kzql/Pyk0K1A/qp7iIfN8F7v8fWqoLerW0NEVxW1VZ0a+femrl5BWPP7qjprLsN6+98vzF5vrqW8889eQPq5YvQa+q+I8X1q7SHvkoev/8OS2agHkoBxVINOv7LJSEEiSaIFRiG5WA8l+OhPMDZ1uOHl5fi96PZJRinT2+uCBHipFYJh8Q6jXMOej1AIG9mNsqkazS4nwpw32rARPPp1Jwne+FbWFBrpTq+QVSBOUgTIX52VKEJNv35HspwrbczGQtP+XwI2wJSmFeJgDCPbCtDLDUABYqUFlhthrdOTMx/G2q3F5SklOIj60rP7ufxJKVFfBQYnTI0eaGhsNfr/vkpSUL5uCHzv/4xWdW/1CH3vckIHgZCsAP66mVy7Tn1VSVy6KFcyUnOx1GsA4JKpXMjBT06hrJzkrVJNYh2QX4UAkIQcnDsfQLRUgU91dXQs7zsvBh52uimOgqJLIYsl4EMJjEvJx0PaYEx1ABNKHYRxiq8T54nUIkuBTvjfuKIfmEhMdUAoAy7C/AdiY1F9fS++DcPFyTkBXk5+AeGQptIa+L4wrysiU9JV5KcP8S3LMUMPBaBbmZeG2uVYyWgPE++dmp8DEl6nmaGioul5bmLff0HD7W+nj/epfZ9WUTQ6b4icsYJ0hlnrz75m/lccCRlBAjq59YKsWoxSnJCbL0sYWSnBiHDydPa35CXLTMbG7EB1UoWRmpAKAO58RKfk6m9tSUpHh8eCX64RMglgEeR0CKcY1MrDM5RUX5up+Jz8lCiw+7HNvzcJ18JCMXrZ6Xm4XXWTgmDdsyJB/QFSJ5vAaTymtoi/26j9fDcVQgTSATCyiys3kuIIIS5aEtgzIUAFaex2Pz8nLwnnEv3Dc1MRZAmPdEyOmDcnEfbisrycM1M7TkUG0yARP9SgN8SXVF4Z8rSnM+Cgv2j8FHrKOxv7pl9ZKFri11tRITOl1GDOovE1xdZPnjS+TJZUvEd6InanapDgV9J3pJY0Od+oHwkCBA0SBpyYmSlpokzYAiPjZKe30JEh0eMh29uUiTn5Icr4qSkpRg9eRSBYhKkA0Q0tOS0bOLdD07MxUfdrZeUxUCQSVi0jPSUyQtJUETk40kZqYn4/g0yULkIenFuHcOkt5xfLK2VAAez9JUoABl6LUzcV429hcC0iwLyFyAx3sw0dyXlZakICfGR0l2WqKqUw4UsRSqRqXJTEtQ9eB7yociscSk4efNzUiSKihXZWkewM09nJ4e19T15z/ra33kfx3LE4/NcmqurfthVkOT5KWnipvzKBnUrzdqax5KyDMSExEq06ZOkQXzWyUocJKEhYZI6+wWCZ42RZNVBhAm+XmrCqQg4eEArBS9MS4mSmKjI6Ee5brOxLNnxgKg8rJi9OZMicN6YUGeJAMaQsRenAylsRNO1SnCdXluKlSLykHQ0lMTFYA0tOlIngbWqQS8B8/le+M107AvA8cSDm7LB5AEgNsIVFoargM4qUwZ2qYrPKkpibqu98E9s3EtqmRqYjSgwLUASj5aApKaFAOAUnHfVN3OEQ/PScOxZVARmtfSopzf5+WkvDzBdZCf9dHf28uaNYuGNtfV/3tDVY3MqK2XquISmRbgKwP69BAfT095YvlSaYZ3GDPKSUrRs9mLRjuNUKllr/Vyd0UPy9EyM31aILxFtURGhKkqFAOawCmTtEexFIRBSYoK8yUJIMTjQy6neuC8pKQ4JCFLoqMiFILs7Ew9PxcJSk6MNyUK92BJS8axVJS4mEgkBOtIIPdTkVLR25lQvQZhwnE8h20yWp5HhWKbRdUBQDxeIUTLY+11Kg7BohKm47qEKgX348+cEBclCbHhgCVJFSYTMORmE+RY9SeEieu5UBcCHRcVKvlZKVqKAAhL0abgaT55+Pjv3Qd4z618rO+sxsY/Ntc3SE1ZOSSwVBoqKyUtPk5GjxgC9egDiSyQNU8uE39vT/H0cEMdrRLvCe7i7+8nGMXIVCQ/FqpAwznJzxc9np4hXyYH+Gkvjo+LkSmT/FHjCyQmOkLB4f6w0GAkKkXXQ4KDNGFMVERYiPZqKkksjmeCoqMiFaIcABQLKBLjYxWaqMgwhZL7eCxbKlEC9mfgvNTUZFWhRGxPTIiTBECUiNdJOJfbCQqD5xEg+xi+jyTsp0KlQo2ofvRdfI+J8B5MOKGJCg+WlMQY3cc2JzMF7ycWr6NVgQhtemoCAjDj/VFxivIzLY+SdiEuOmjJkH4/G22l495ZPnp9bZeWxsbrzfWN0lRTq3BUlgCO6hopycsXfy8P6dezmwT4+siKpUu0dAwfMlglPgfSOWzwIC0H7N0T3FwwAinVhPn5ekslRh6EIDhoKhx/kUwCSExkEY6nkpiemSJTAyerF0hLSZKgqZPVa0RHhksUyhgBicI6k86khAIgJotJDw8PQSJjAUI0SliwwsKyFY17cJ3XiIMysVQkJRqVigOkhJjnxMfHKLQJaAlhEhIaj/MICbfH4phE/CwEIFGPidX3ER8XqVDxGrwPoQkPmQYVAZjx3EYoABZhjQoHMIAN9+Y+lpiYyFCU6GCob6IUobRlpSf9e1J8+AdeYwdFICX/l8nMXV5E3vrvs5ua22c2zpD6Kk7/1gGKWgxZi6S2vFLqoB6xSO7wQf1k5LChMJ9lsnTxAnF3GSu+3hOlsb5a1yd6eUoD1v19vADCNAwnK8QH5pUfbklxoa6zl6WjB3tCbSjZBGiSv6/W9IjwUJSiKepVwkKCAcA0yHYqQJmiyc7ISJMglComiL06GOv0GFwnLEwCIQydPlWPicT1IgEOYaACMYnJMMtsGTG4ZiTAi0FSqWIm4UgqrhcfG4NjovQ11YnHJEABFCiqFWCMwr2ikGAmnGDExeD8WAACj0UV4fUIdgqUhIoWzWNxTAKOiYuGyuF6MYCGQEWETZf46HACgp/Xv62pOHbGravt46wU3b0FpWTvrKZmaYLHqK+slnqoRX1llSpHVWm5bi/IzBRPF2fp37uHTJ00SZYsWigZ6PGDBvRHucjRnjAAZScLZYRGbeyY0TrCSEUy3F3Hw/3n6wdMQHg8DW0AVIVzC1ynqhAQgsIPmkrBdfb+JCRrcoC/yjITx9JFEKIiwgHLFC0F9Cf0OOzpwdOnSUgQ16MVmggAwgSHYjQVjWSwrPB4rrOl2vA+vB4VjQDEAx4aZUJDSFTBVLki9dhogEEQeO0IwKBlBftjIglZpIThvhy9ReDaoXiPyVCZVKhMGEBgTJ0SINHh0wFJpNSU5sriR+fLW6+ulROH98nVc8fk+6vn5eblszt279xS/MQTVXfei1RXl45uqqv7k60UTWipHAoH2tqKKqkuq5AGLTNlEoYfcuiAvjJs0EApKSyQOTNnwIsMEx9vL6mtKpexo0aIG0DgJJjvxAmmpJSX6PpUAFBSVCATPT3UX+TCZLq5jEMPC1V14HZ+wAlILgHS2p8Qr+vJACIyPEx9SxpUJyIsVAGhYZwOqIyCJEvI9CAdMcXGROv+ECgIE0s1YpKY4GBAQyCYfCaWykKFCQVQVAEqDIfcPDYGx7Fn6zqAMEoUqnDwuChEDPbxeMLAY6IicL2wYPxcITINADD88DNEhgTqKKa5rkxeeeFpef+NV+Ty2Xa5cfms/MefvpM/3Lombft3y+/ef1fLdiOMPMtrTNDEY6/XunWzUnZnlqK87GmEgZ6iRktHlQAUfV0HKBQQRHU5n0JWaanJTE6S8aNHSM9uXdRszp8zU4e1/fv01mEfJbN3j0dULbLhIUYNHyYsIen4IceOdlLDmYjku4x1Ri1O0YSPHzsGcKToh+0Fg0vjFjxtqgRgKJwHwzmd64CM1wichA8bQ2eeO3XyJJkO4JJglifjvbCX8r6BMLtMNBM7yc8HvTQI9T5Ck0RAInGfIIDDns9SxdLFJBOS6fA5VAEeF4Jr8BiCYCebLfdTaaKs9UgeDzgCJ/nhPfnLJLzXpJgwnYCb2VAhn7z/pnz24dty/fxx+Zc/3JQ/fX9dLl84K5s2bpBfvfqyzGyZoZ/RFKikq/MoGes0TNycnWDy3SQkwOPPbzUN7m+l7M4sFcX5XvUYqjZCLagMjFrAwW0EgopBWFQxKvh9hXKQXC/lxcUyBUnr16s7DCjUoyAXx5djfYB4w29UlBSI07DBWlIqMcz1g4n1gJKUlxTCh0yUifAZnAzzg9L4+XhjCJeNoa+b7svNyhQfrwn6IWfgw/KeAIVB4nJQpridipACM+mD+ygIMI4BuAYTFIfRiy+2xyCZiVCEAFwvkglELw+A/4lCPY/GeiCG5Ewqe/pU3CeafgPJ57V5fDjuFwSIeH2uh2B7NKBghAEWgkAg/fH+w6YHIqF+kp4QKTNn1Mujc5pk09efyI5N6+XW5VPyb//8ndy8elHajx6STz/+nU4B0KSzE3hiuO+M4f+YEUPFBWrLcu0zwUV8PfFZTPRQwGKmely4+OEdftxflJM+jjBwDqMGqlBFONBWlpQBBH63oVbBICAKCr1HKfZZ8CRGR8koANC7ezf0lABpRWkJxgfat1dPmKlUyOc06fFwF01SLsb3wzGKoYTnwoeMhpKwt2ZhtOE8aqTW5hSUjDEjh2vvTobjd3Eeo84+AbXeffxYbMPQEN7BA+txkPA41PSJUJhkOH5C4QPg4nB8RPB08UFpSqB5BAhMoCYVZccfZY3rEUg44Y5CkkNRXqZAWWIBB/dNhyIx+TyeEEUCkKkoYz7owTGAKwSqUpCZKMsWzZeVS+bL/h3fyuF9O+X7a+egCLfk/JnjsnP7ZnntV6/I/LlzJAewU8XcxzkrBFQE97GjxBOdZaK7i4Y3wmeCq/gi/LzcLTC8JG6axw4rXXduKS5OG1FWVPxngsHSQTgUDCS/orhUywu9Rx38BkGphTmtAxA0pRWApwGlpTAnGz+Yq/R65GFNfElBvlRADQb07qm9uhLqMRKqMmrECJxXJAHenigpo6A6Bfphjx0zSoqgGNOw7ooPrgDlKBCSOg7bcwDQdEg+QchGeQmCTHvhA8zHqCYUPZYfbBpMXfCUyQpFJjxHKPyGr6e7JNNb4Fw/AJIGoMIJBZQrHuqg2/Hhx2E9DMdPgprEYjRBo0hwYrA+BaXJy3WcpMI4hk4NlOqCNHnx6dXy4lPLpX3/Djl19ID8/vpF+f2Ny3Ls0H754rOPZc3KJ6ShrkYh98F74DMo55FDZRzUwGO8s17Pyw0wILwwvOc6gfD2MEEw/LzcJABQEAyWluQgj/etdN25pbAwoX9JQcG/sJRQFagIBIAlo7y4BHCUKCgEg4rBffQahINKo/DgNZUmFMPUAX16SveuD+koY3ZTg0wGBH169pACjDji4cK7PfQgenGUFGany9CB/bQul+RmouwM0dpeBCjGQT3YYwuy0nV9ir8PemeaTMCwOBDruQCEQAShBBThGF/04gAoQia8hR9KzRS/iZIDFZri64PwgsTHymSUmslIfiYgmo6ey+QnYYhIlfD2cIUKBGuifN3HS35akoTi/o/PqZdfPb9WPnjjJblwok0unToi1y+ekvOnjsn2Td/Im7/5tSxaMA8gZ0lw4GTxwPujEjiPHCauAMLTFcN4QoBrEgAHEHjvXPe0IbHUgmDYahHgPQHhIVPx86aHuD9jpevOLa01eV1L8gtucJjKRJvEm2A5IRxUDyoEATDlBMdCSdjWVlTjmFKNusoayUhO1pEJ4Rjj5CQVpcVSDAh6d3tYzWN1Sb4+rBs5dAiGaUUSiCSOGDJYKovyJAK1esSQQQpNLBLlNHyoZHPGENLO7akJMZIKFRiLmpyI0pKC9fEws8kwuzkYOrtCYcIxCkkDCCw7kfQlON8b3iVs6iRVkwkuLhKE0pAMOMc6jZSwKb76/qKDA+VXa5fLG688J5vWfShXzx6TK4ir50/K8cP7Zf0Xn8jza9forC9LGUF0wf3GjBgi46kG48aoGpiygMSz1aTbUAACAoHwdCEUXDdgqFIATqqF/0R3jGAQgIO+LCgAnSLcZaaVrju3rFxZ8ffF+QVnOJlVXlSsMFRDLVhCqmE2K0pKHUFAqB71VSwtKCc4pqac/qNGwSgt5DedqtAWas/mnAdHJ3TvMxtqxA8/ONWjODdLEiDVXR/8hfqEsrxMwDIAvW4SAMlFwobrB1+NEsReNRGKUJZvypUbRi+lUBiWHXesF6DUhKAssHYXWUARkHRAFAk1IjgpACccoxpn1PaynDRVjar8dPnkn16Tf/rV83J031ZVgstnj8u5E0dkz44t8s5bv5UnMGQsLy5Un8FEUwlYFjgimzB+jCPxdrDX22CYUtEZDAOFN/wQlUnB4H6EeguAob4CSmGgMIAET8ZwP841y0rXnV2K8vMP0l+U5hdKCYKAsJQQApYIRgcgBIelBXCg/JiyQ4iqAU4F/EWRQkKFSYAxHY1e371LF3iK0Ti2TAozU6Xnww/B0PlJQ0WxqgfnRGpKCyHxfjJoQD8FJyk6TIYM6AvFSESvT4RiDJREGEmWkRE4PjxoigLihlEPz2M5chs3FqVjopaXsTCwAZ6u0lJdJrGh0+S5JxbLh2/+Wj599zdy8eRhVYJzJ4/K0bZ9sv7Lz+SFZ9fKnJnNkg5Vob9xhwIQhHGjMGyESfTAaEEhVQjoDUxvt8OGw+zr2E4YbEh4jjfgtr2FttjvY3kL+iICwREJyyPXQwHGzFT3qVaq7uxSVlSwzUyDQ/bz8gFHgZQVlSgcNiDqJzrBQVhYRuoJB1TDAEOvQcXg9yP5fYRyjD4y8YN6qBHlPEdcdLTMrK8WLxixvr17AcI8SYwMkYf+8R90LqQKijFsYH8dpjVWlUEVRqMsOEt9RYkmnWWqojAXKhEAcPopNFSMwf16S01RtmRAKUqzU+Tz99+UN199TvZs/lqunDsmF061y/EjB2THtk3y7j+9IcsfX4z3V6JzF94e7goBIbbLQkf9RwI79Xo7+Z7Wa8d2u+V+tLrfVgUbFry2r2uHrRg8xtvDKisYrhIUmteQAE9ZnO3qbKXqzi5FebnrOKHFKXDCUVJQiF6br8phSgjhoDIYOIzvsKGh12BZqcJ2eJISbq9UsIpy8xQSXo8mczSkfHD/fuLu6gKYSiUzMVZ6dO2iUt1cU4GRywDd31CJhAVPlX69eqgZzYMZHNS3t44y6Bn69ewuiVEhUge/EjrZV15ZuwIQPCsfv/2anGnfLxdPt8tZlIT2Q/tkw1dfyCsvPCtzZ7VIVlqKTMOohuWIEIxBuIweCRCcddTjGDVYCdXEdQLjxzCwx1NZXAkvQo/ldrQEQCGwQOlQDRP2sQRCoVAwWFJs9UDAY4RP9vjD+laPnlaq7uxSmJP3Fmc0OQIxI5FSJCRP8rNyAACNpxm62pBUIPk6nIVKVAAGvq4ADJUIhaOoDJCZUU0h4CgAZAQkLSlJa/Xg/n1l8MABkpqUKHNn1KMcjJS+vXphuFwqSVGh8uDP/4dEoyeXF+RIHwyB/aE4M2vKMGIYJwtm1Mi7r70krz7zpOzb9o2cPd4mp4+1yUmoAb3BB++8JatWLEXZKpe4qAj1KuNxfc4djAcETOQEjBY0cS4meYTChb5h3GjAMkQViknjdrdOCZ+AY+llXAEWh59uziNRpqbqxBZ/r2UilMc2lHbyNeGafAsKLS2WD7HCHqYaINy05bEuuE+gx7CDVpru/FKQm/sCH5Qx8WVQiXL09sqyMjWR8ZD+qLBwyUhN0/1UCS0l8BNMPpWBwcSXAZ7KkgqoRpmUFBZhWynaYoCRJ3lZ2VKUV4g2R6eiRw4dpN5i6uTJMm8Want8tPzj3/+dhGDYV56XISMH9IFXSJFfP7tKVi6eK19//K4cO7hTThzeKyePHpQjB3bLhnWfyWuvvCiPzpsjhVAWTlIx0RwyjkVpcAEQ9Aas7XaSbuvN+PA5bzJm6EB5asks2b9rqzTX16oRdANAAV6uEh06XcbBwNJw+nqMg7pNwbB7mjRUl2MkFIufPV/mz6yTzKxcKM8oTfJEhLfez068q0ZnEGyF4PDUBqFjKnyETPefIJUFafKb55ddunr66t1RjLKSktWzmlpUBdjLi/IK5HeffCZffPWlhEwPlkGDhkpSfBJKA3t+kQUIJ8JQMnC8KRdF8BWFUloAxQEYWkoAAqM4vwhj/VzJgd/Iz87RbQkxMdozRw4dLJ4eHrhWmSye0yTzmqrlk3d/K3u3bZBDe7apEpxqb5Nd2zaqGjy1crnMqK/RSS2aRPZo+gP9QGESOdfBD9lOfGd/wGBibDDcAIWL0xB54/nlcmD/Pn14de3iWfnsk08BzFhZsaBJitE5CtJipbGmUmbWlsqc5gZZOKteWlsaZeXSRyU+JlpmVBVJMD6niW5jTdKtcHgFK7jNBoOjEoKgoxwY3EAfN8lLjZblC5rx8/9GDgLSa5cuyKULFzBS2jfGStWdXUqKCh6fPWO2TnGzZNAv7Ni9V7bvbZOnn31R+vUdKL7e/hhlxGhibeWgaigEgMMGg1ApIIUEhnAUST7KUiGgKkCbm5kl2QCkILdAstIz9NmI0/BhMjUgQJYsmCubvv5cDu+HGnz5ubz+6ktQg1acm6WTZxz/O48YpmVhnBOkHFAQBE20zhOYmIASwG1a261e6jCACO5jmfBED//ojefl448+FQ83D/iYXrJoZrXs3XdARwhPrXhM6itL9RlNM5L//LPPSnxkqDy3aqk0ABSOmOqqK/Wpqt/ECWY0QW+A1jHkRHAanfd3dR4NbzMEP8NgqI+zZMSHojPUyXu/fVn279wkly+ckZvXr8mVK1fl7OmzGu1HDn//f5/Y191K1Z1dSosLW2c1zYQ81ulIo6KkUt796AvZefCILFq4SHr17CVDhwxDzY6WnLR0HdKqv0Do5JatENheiISzdNBbEIoSKAihYAnJh2oQEoUjHeqRhRKTnSeRoWH6/VLOTpYW5EFZ0nVU4oKh6OhhQxUG+gOaRhpEu8drwCd0ruvcZoPxl9UC69hHtZjk5SKb1n8uv3vvPUlPitNJtFnVebJx42aZ5D0BhnWGFGWnyqOts6SxEqWypBjvc4LEYRTFx/tmxDRGSwfnHPy9PUw70QPG0V2hpRchCBNdR0tCeKDMri+Vt371rOzaukEunjslt27ckOvXb8jFC5fkzOnTcvrkSTl14oTGhfPnpf3okXZ5663/bqXqzi4lhfkVLY0t0lTbYCarCsvk+Zdfl7ZT5+Xr9evFecwolJPBkpyQJHlIKns+1YAwsPTQk9B0lhQUAwYqQy4SDggQPFZhQZuXnS25BAQwEJSstAwMZ/k7H4XqY3xg3viUdAxKw/hRNIrO+uEy0drDLbOo26x1O5jsjtcoJzCqtlqox1AwOMzkfhhJnM9tnrhWTWm+bPj6Sxk5fKQ8tahRvtm4RY/Nz87Ulk+Op02dih7vhDLginOd4RHGAQKCYJ5pcJaSILrgGM59eI0fBWM6WZqq8uXVZ5+Ubd9+oQ/Wbt28Ljdv3pJLly/L2bNnFQaNU6fkNOIkgCAcbC9evCjHjhzabqXpzi/5OZmJjbWN0lTXJJzW5kijtfVRufrdH+XDz9bJkMGDZYK7hyaciaca0DewfDBKYVgJCsFgGeEohGDkZWaj92epQtiQ0ITmYHsezBq35WTmwC+kQkEyUKo4lT1OJddtrLOCYYaRBgS7bGhLpWD5UDXogMJeJxC2+esAxCgKj3HBPTJig+XN117RkvLrF5+VRbPr5AT8TEVVvRl1QBH0WJhYL8DGkkCvYEYObjpKoZLRJ3iOd8IQO0BqijPlxbXL5NsvP5Kzp9qhCNflu1vfaXk4DwU4c+aMnHWEBYUVBENDwTgpVy9fkRNHD39openOLzk5mSH1NfVQjCadk+ADM444Fi1aKlWVVZKWkADj2QEFfURJPtXBlA3jKWhAsQ3rNJeEiEDQcLJsMPG5gEB9BtQiO4O/K0o48iUtOVUnwjJT0wEBwKBEY1SgitEJCntdFUGhYK83EGipUEgMKAxOGHUGwz6O+zjk5KziV+s+R3lMlf3bvpJz585LQXElytcgczzNojWioGE0IDjBJwzGEHuYBAd4Snlusjz9xEJZ//n7cubEEYBwTb7//nstDxcuXJRzZ89BGc6ghWew2tMWCATDxJnb4Dh1iuXkJK51U86cPH7nH6DZS25mqj+BUDAq+HSVX86pQfLNJBefn3CSiskuBCBMbrE14igEHOz5BIbrZiRCYPKxPUcVgyUjE96Eic/G6zzLW2SjjBCO9JR0tNmSnpwGGDh3YLyEUQsDh1ENAwfl3+75hMGhDFhXE+oIa7s9o2iFPTrQ+Qp3V/GDAjyz5knJzSuWMYDC7HfRp6Ucqo6CYRw/epgEYQhZlBkvq5a0yhcfviXHD++TG9euyO8BwjX6BEj/+fPn5Py5cwrAuU4ty8a5c4QDcZtqmNc2GKdsME6eku9v3ZILp07MsdJ055f8/Cy3Sgw/m1BOaD45FCUcnAbXCS+AwaEsFYOlIDcL5UHnJYoUBlUHqADLQ2dPYYwmvUQ6kp8qmSlpaNMASYaWkFzAkQtI0qkYUBcqh/s4GEMFw0BBUOxyYsPRuWTcbjAtICxIFAqE3ePZ2mDYw0cboHEoCZxuN4rAIeRQmerrLvmpUfLEolny8Tuvy9G23XL9ykWA8J3cQG++ePGSSToSSwAIhA3GeUBg2o4wqgFAoCJGSTogYYmhkpw+BThoQAHGzevX5dKZk+lWmu78kpISOwyjh/+YYXkMAsHhqD3trWBYIxCFAL2eJaIDAjPqYHK5Lw9KYQI+A7BweEo4MgAFk58GSDJSM1Qx8nAuwchON/s9XTGs01ICxbDDUg9VDAUDpYRQdAKDAHReNyBYEFhDyB8HZ2HpNcwQcpAEeI6TnKQIWTqvST5559dy9MAuuXrpvHz/3Xdm5HDpkkkmSoIpCwgAYFShA4wLDjjMa4XCAkNbK+xrEQoHGFQNQMGScvXKFbl49lSQlaY7v4SGhvYsyi/6g4JRVasTV/QYZgrcPDDjuv1ovQBJp2egehAUjjJYTlgOctRPcK7CNp0cfvJ44yHSk/m7oCmAAOuAIwv70lBCMlPTVF0m+/rqt54IhsN8olUg6DXwWlu8dsDBcMBBb9EJCppFL84reIg3YODvwFAZXFAapkx0keyEUFk0q0be++0LcmDXZrly8ZxRBIwcHIpgeYMz6geMJ+C221QBxlIhsFvdZrWIzlDw9Y9LCq/dGYwzp8/IRVzrxvlTnlaa7vySmhrWBaOM61pK4MhrdC6D8xSc4uZvpkFBOJmlYHCqu8j4BzWU9AwcgjLMKCSbnoJ+AvsJTB4SztdMvsJB5cBIJA1tVir/3ECKXis1KVkfnXcejRi1sEyoHQqJHYAEYOgDLoBhyofxCNzuChPr7DRcQZgMEDLjghWEd197Tg7u3CRXAQIV4cbNmzqE1ORZPdkOTSwgsAGxk22HneyOABz2doLSaZ+WEW0NGKoUKB8EQaGwRiY87sypk//23Zmjg6w03fmloiLtweKCosuqGNX1GJnwG+OVCkdVKdWDz0VMmKluMzqhWrCkaAmBWtB3EJJ0JDg2IlKnvTmVnhSXCBCSLROaaYGRAhBS1Hiy5XVSE5PVENqjEruE2GXEbukt7DCjFBP81ha/J8pvp48ZPkh83cZISmSgzGsqk7d/9bQc2PGtXD5/GqOG7+Tmd98DhCtyDonTRDHxSJL2bCsUBGy3k2wA6CgZnRPuUAusc2Lqtn0IGwYN67WjhACE28E4rUYWYFz74caxB6003fll+Zs1Py/Mzz/XWNMo9VWc/aTP4HcrqBZGMSqK+bTUzHDyuxZmhEKPYeAwgHBkkSqzmppk5YrHxd/XRwYNGCiTJ01RIDJRTlhKTKRqsIykJBCadG3dAAPNJx9i2UNWoxjjdJRghq6mlHD20tlppIwcMlhGDRkgXuNGSmLYJJlTVyxvvLRan7dcOnsCinBLbgGEK1evyXkMIY0BZIKYZITCYdY7tp2TE8eOIVnovVZyHUl2nIvXCgTDgoGtXs8G6fbW+IrbwwaEcDA4UrmFEcn5c2c2Wim6Owv/+m5Bbt6BxhqoRQW/tmcUQ5+g6mN2AMFnH9aElj4T0WcfHIWYoGqwhKQkJMr6bzfLho0bZdWqp2TMGCTQbYLERCdIfHSspEAVqB5UjAyYUA5Rk+IS9LlJMtSFyVZ/8WO1QLDMjB3lBBAGidPg/jLBeYTETveTWdWF8tsXnpRdm7+Uc5xUunVDQbisIFwwSUTyTLI6eqwm1LFuJ7Qj4TSXNiS6jccikQzHa+tY+3yGKoZ9Dq/TqT1rjUa4fgEe5tKlyzge79G+pnXuH//4R3iMswusFN29JTMj48vG2gbrO5zV5ss3MJ30E1QIjTw+KeVcRb4JfQaSrf6iQE0mygES/umX38i+w+3y2utviquLu/Tu1Uc83QFHBH9XJFHhoZ9gpCUBDGzjY/1kbNd5DCgFg5NQtiI4QRE8nIdLbJCvNJZly2+ef0K2f/u5nD15RG7euGZ5hCv4UC9oj2MPNKXAJMQkx06+kXuTQMRtr01COwAx+/9SmGsyrHP1tVnnZJl6DV23oOB+BMvE8ROn5Kt1X8g7b7wux48eUkD0Xgjuv86h6rlT/lZ67t6Skhj/Eb/ky1LCISuh4MMymsKs1FSFoFCHpyaoEjSWOq1Nw4njOPKgT3hy9dPy1e6D8t57H+j8QLeuXWWCuzs8R6wkxsZpEBCaTg5fE6AYVI/42HgZNXKEDIcijIQieEARohWEHHl5zRLZsv5TOX38sFy7elmuA4SLl67gwz4vp1mnUZ8dMGiPtJXBqIBJovng7bBBUCguWNut5DHMfpxP5UCrplCveTsUBMA+1rEN4TjODmxj0g+0HZfXXnhG9m/7Qj55+3XZtfEr6/4X8DNwZvSMHD186IcLR/aPsNJz95ak2MhVpQWFSHo+5D5FgoNCJHR6sKTEJyDiJQNKYEYeCIWCE1qc1mawjJihaFJcvDQ1z5Ft+w/JlRs3pbqmVn754IPiM9Fb9zHiAQjLSiKvjXsRjLjoOKgQRjApMVKRmyy/enqZbN3wqX4X48b1qzqhREU4Aym2h3V2bXZAoWAYqTdwdE6inTiTMLa3AaEJtRKI0H3cbr3uPNIwYUqMfYy5Jlr7HL2miQsoZ5weZ7QdPi4L5y+WV1ctgeJ9Kd989qEc3rNVjrcfBQxH5NDBg4gDcmj/Xjl3ZP/d+a6nvVy9evUXWRlpi9xdXPQJ46ABg2RA//4yZvQYCYRxjA4Ll0Qkk5NQLBc0ilSH3Ixs9RUcbZgJrBQoQbzERcXK27/7Sk5f+V5i4Bv69e4ByKajbHCEEq/KER8do8ERC8EImhIozz61Vq4gUVcvQ0o5swgQzp41D570OYIGHLwFhBo39GbbxP0YCCZNE2ZJ+m3J0tZKoB5jRadkn8d7sa9hQDDn2td3nP+jMCBcUH+jLbejvXTpknzw8Zcyr7Fctqz7QL794mP56ndvy96tGxSEtv375NCB/XLk0EE5euiAnDm+39VK0Z1b3nj7ff892zfP2Lx+3cdfffTOhczkWP0tsW4P/VJ6dusmvXr0kH59+orTSCeZEjBJwWBSk9HL7ZGFzktwooom0gr6h/ioKElLASw5hRI0eRLACtVzEwEAjWZiXJzCEUc4CAlKy7TJU+Tp1Wvl8uVrjkR3VgVHWPuYGPs4fvAdyWJy7ESa13ZyHPsdoPzn1w4QHElHq9c2nsNcw9rnSD7VwEBg34tPU2kuuU4VoenkiOPFV16Xp5e2yvmT7QDjE/n8vd/Ijm/XyeG2g9IGKAjH4bYDcqL9CH+94c7/cfumxvoNm7/dIMf275TP3n1TCrJSZYzTCOn5yMPySJeHpAfg6PHIIzJ44CCZ4OYuvt4+EhLE3yaPRlJtj5CkIwz6CvoFtklIOj0EjWZ0WJgFE2ABBAn0F1QMeAkCERcVI3FoY3FNgvHMU0+jBnOSqWMIpyqB1obgNijY4lhNpCNpnSDR12ztxCOsY257fdu2269lw9B5myb/R6Fm07rGlSvX5P2PP5d9u7fhZzgr7UePQgXaVAm279gp81pnyfpP35NvP/8doPgCMOzV8sH9xwCEmeA6IzevnLvzpSR6sveQkuLi0whxGT9ehg4eLKNHjpQhA/pLr24Gju4wjX169pK+UI4hg4eIh7uHhEwLksiwCImJjEJy4RmgIIkoB4lIflJCkk5q2WUiJiJSVSI5IVkVIpbnAI4EnEe1IBBxgCwWfoNfCn5mzVrI7VV8yB0lgnAoAJ2gsCelmARjLtkrb0+e2Xf7umM/W4cSdLS6/qPzOodRg9vDvBcTfJ8E+dSp07Jz2yY5fGCPHD1yWNVAy8PhNjlxrF22b90qX3z0nhzcswP7D8nxY8fMF3SscqmgnT3zL3+6dfHO/k0Me/GbMHzQJF+vdxqrq6S5ulT8vCfoN7f79+6lcPD3Tx9BdH+4m/QGIITD1cUVvmOyhAWHSFR4BJJrej0TTCWgohAABsHgNkJDpaBKxEZGG3CwTrhiCRCuEThpkqxdvcZRShzeoZNaEBKVZSSAYSdTk2Mlz9HjNWFMumnpPW7r/ZB2+wmnSWynfQhzLZN8WyE6Q2Cv0wxztvL48ePo7TCQSDQB4Hr70SOIw5ZaWAFITp04hvt2qKFDGREnT55SL3Lh3NnzP/xwTv/Fx11b6mtqdjXXVsn0QH8tJ4P79ZO+PXtI7+7dAUcX6Qb1eASg9OrZUwahtIwf5yKT/QOgHtMlPCRUogGAJhkRHR6JiFBoGCwr9BUsP3YJUXAAQwy8CKGIBiyT/f1l1RMrVTGYrL9cPm5PngmTVC0pmkzz+i+F2Wf267oDDO7Ha1WAv6AGjvOMV+Bw8uTJk9rTbQAIRHv7YX55V+PI4UOINoWEcFApTp44bqa8FYIzuv7j4HWvXbsmF8+f22Ol5+4tsWH+wxKjIy/zl3w8XMbpb6IP6NNb4aByEIyHCcfDXaUnTOnAAQNlrPNY8ffxleDAaRI2PUQiCAhAYMsv99pBYBIBhG026TM4VI0mRBEdYAT4+QGMJ82XYtGbjMegYthwIHmdEkkQOowok2aS7zjWeq2BxJrt9vGdtuu6UQcbDM6NKAQaMI04h8k8Abk/fvyYUQICgIQzjtnKYKmFve0Ejj150pQI/jx28vm6Mwg/Dp0OP3PmAys9d3fJT00YHxUWfNPP21OcRzvJkEED9K/i8LfVewIIwsERS3eA0rNHd+nfrz+OGyO+E70x1Jyq3iN8ejAgCZZQmNTwkBAJR7mJABxabgCD+goNjEQAig1HJMLf11dWrXgSw9RbmrQOOEzYSe287tjG1kogodDteN35GANVBwQOVXBAwP0GBpYHQklZP4EScRy93ST/iJpDhg0FPQQhoWJw+wmUCZpHk3hTHnSd1wJYbDsDceKE3RK647r+/e+/l0vnz66xUnP3l4qCdO+o0KB/5m9nDR82RAb1t0sK4OgGOOyy8nAXHbH079tfRjmNEm9PLx1VTA+cqhE8lX+zKkgBYUSyvBACKAMVIgZtbBRKCgCJieTf5AQYUB8qxtVrNwwYCsTtw1WFgDODjtcdyScUtoJ0Dl7LjEpuVwQbEgcIOJZPNWkCqQrHj9EvsOcjkHC+PoboUAoCclShoSrw63iEgArHVhNPEGxIAIQNg9kHGACCDYQdBOU7KMaVK1dWWWm5N5ba0tzAsKAp/zp65DAZMnCADOzbR/+mBYexCgeVo8svAQmGtICjX59+MnLESJk4wVMN5DQE/w4oQQkKDDRKwvJi+w6WDwJigRIL78HW38dPVj+50gKDSe4AovOUt75GfSYgnZXCgGKBYKmBDYOtDDYQZ8/wHOMVNGFMDlWBAFiKYLyDXSY6FILbT8AraO9Hwvm+VBUYFgQnAcltEHQKwsC2A4QOMLid5/Mp8FMv/Pqfs/37DLPScm8sNaV5ocGB/v8+FOVkYL8+ZpQC1aDfsOF4GGWFvqN7t246nHUCHJ4e7vonFQNhJANhToOmTIEHmapT6ywpjMiwcAQUBIBEwbRGQzGiAIafj488uWw5jNdNJM8G4HYYVCnYs38EhqoDkm4guGgpgykRJqASnEElDKoKTBCM41GogCbfBBOvymBB0Q5AqBCEhjAYZbAUoFPYCbXXmWy7tcNOvh3HaFwR9vpRvJd9+w/Kvj275CJGZh+8+7a80+Kn/3funlrqywrigib5/MC/9svfRO8DX9HrkW76B9hsz0E4jO8AHL37yIhhw8XD1VUCkGT+YbOpAZNUMVha6D2oHA5zCjioHgyWGt+JE2X540vRW65rotkDDRSmdNhgMLQMIPkKgwWEDYZC4ACC0+lG2jU5SLDDJ1gtk08Y7NJhw8FywuTSL6giEChHObBbA8R/hsCAoMlH296O+1rBbe3tjHY5dOiwtB1sk31798nWzZv0l552b9+s5vP0iaOrRMTxv+nuqaWqNCcl0N8LYPTo8BqA4sfKoZNh2EY4hg0ZKm7jx+tvlE2BckybPNnhO+g3OP/BCA8Jk/BQ/hnmaAlD6+3lJUsXL5HLV65ZCmEkukMpoAxIuq0ANgR8bbabbYSGMJgSgd5pGUdbFfiwitsIwVG8Nj7CQMIhJZWBfoHvoaM8GM/AhBuzaIzkCRsIVYEOVTDJNyBQCTSw3nbokOzfv1+2b98u27dtlU3ffiPbNn0r+/fukf379sihg/vlxvXreN8gU+Te/m/R1cXZWVN8J0AxHlGvwb/nSShs5SAU3X4J5bDg6AN1GTp4iLiMw3DWe6L+YVR6DzWmgCOYppQjFwUECgK1iAiLgEeZIEsWLXaAYRSD3sGUCSZfQ4eYHTCwPYMyQYBM8to1+cYndJhGLQ9UCPULxjOoebSGlCctAFhq2JowAKgi3AaGWT92zEDQGQa2BOHIEcYROXz4sMZBKMOmjRtl/brPZdM3X8uWjd/Inl3b5eCBfXod8/5PEdK9508cure8xf9qARz5k7zd4TOgClAPhQJwEAwbjocVjl9KDwuOIYMGy/ixY8Vvopd6DhrSIEs5HHCwvEAtGF4AY/HCR+US6qsZJZjks9WwDKNuAxinqQqAh4ljgh0QOIBgj7XKBSAwwdJxVM0mk2tKguUNtCSYdVshVBkIAY43ioDzAMZtqgAI2glDJ3WwgTgEhWBwffeuXbJt80bZvXO7HNi3V88/BRhYTrZu3Xp++/ZtL+3avjn8k09W/r31sf91LJUFmeUB3m5GLXT4asFhRQccVI6uHXA4O4svysQUmFFbOYKnBql68KFcKFQjVMHwkIXz5sFj3ETiL2jibUBUEQAGE8Yey8SYJLPXA4LjNIsGBmMcbVUAGPQLSEKHcezkFxyKQCjsEmEDY8qEgcCAYAc9wlHcpwOEo0g+YTjigIHR1tamcfDgQW0JEmE4ePCQbNu27QxKygtbt24K3bTp/Qesj/mvc6ksyKrz83SVHhiq0ogSiB4Pd9F1toSiK+GA7+gBJends6c+nR03ZozCMdkPoxUYUn73YvrUqUZBgvgnBUJUMRbNXyDXrgMMCwTCcRJJZHJs49h5HkFDVcGUCTWP1mstEZYSGK9gSoOtDsYfmLJggDCKwNbEydtgMEDcrgps7VLRAYSBgcHXfO8KQ9sh2b5z5wmow9Pbtm0K+vDDZ39a/wq8NDelxddjvHRH2WBJIRB8nmKHKodtSAkNRjODBgzQP+fo7ekpk/z89H+PcJ5jGsAIgnJMh4JMcHWThXPnKRhMmkkEktBppGDKAhNizThaYLAlDDpHwGQrADYMRh06JpiMKvwlv6AA/gWVsIFQVWCZcJQKjCosCNqQ+DYow2GF4YRCzW07duw8BhhWbNy6cdL69S//D+tj/GkuxdnJ87zdx8ojDz2oqmFDQUi0rEBRdJ4D0a0rAOreXZ+vOI8arcoQ4OMLQKAeGLFQNQiIh4uLzJ09W/hVO4KgyVcADhkArNedYaCKmFJgYKC6OGBQVbDUAQDcHki+AmBaDikVBgsI2zM4gAAIhMCEVSYQLBEH2wgDwMW5VKYD2LZ9+47DKBXLvv3224C2t976O+tj+6+xFGQmLvZyHYMRCeGgchCIDuWgEVXPATj4mt8IG9i/v4x2chIvDw/x9/HR0sLvYUxDaXEbP07mtMzESOMcknFIFYHBR9X6KNtSCJYIRxlQAOA7VA1MeVB/YJcKKxSCTiCwZfLbqQoKA0HgaILlyioXgML2DG0sD2yhDAqDAtGm5/H+e/ful63bdrRt3rx1CWDweSsh4e78BZx7ZclNi1k2YdwowPGAgkEAtIQoHGbqvCvAIRyEhmXFhsPT3V3h4FwHTanruHHS3Nikku9QDIKBYAKMMlgqQACoEHxNQKzXHTCcAgA/AsKCgT3bTDDZYYPQ4R1YJtgqEJ1g4Dqvwfvu2r1btmzZtn/DtxsWbFi3biI+jntzMupuLTkp0avcnUdK1wdsOB4ycHSxPAdeO+BQz9FDBvQfYOBwM3BQOcY7j5EZDY3wCBjL69wDkwgfoCAYIEzvNyB0bOcxBozOEGjgtZYGAGC3qhRojxACjSM6qug8xKQ3sEHgdsJEZdi1e49sBgzffLNx4bp1nxKGe3sS6m4v2UkRz7mNGdEBBx+yIYx68FtglnKoIeVopYca0tFOo/T7pH7ePvqfkBrr6pCAswYAK7EKh/oCE4SB2+2Rg93qsQg1jZ28QmdlMOpgwoDQoQ7qHQAEzSO36b0Iwx4Dw7ebNs3/7LPPJuDHvQ/D/86SGR/+isvo4YDjF2pCqRAPw5zapaUDDgDTrYsDjlEjncQDIxL+Cwv+16QTJ89oso0h7Oj5BhLzWNqhBtYxNgwEgF7BhsEAwBIBGBxG0p5zMOpw4MBBxH5VhxO4FkcTO3ft/vMWmIZvvvlm1pdffnrnv8L/U1vS48LeGDdyqHQBHITBwGGUg2F7Dt1Gz9Gzuwzo10/hGDViuFSUliHhpy0IrHBA0RHHGITBCqMMVATT2qVBQVAIEKoKHF5aMOw/oDBoycL1d+7a9WeMJrYChhlffPHF3f1Fn5/awqeBqTGh7/HvWnb5xT9qGeHvquiw9aHb4dDRCsoKPceggQNl5LAhUl5SgiQbz2ASTiWgaTSKoAphKYYqBLarEnQKQqFzCiwNAIIth5CdPYPxKoRh979v2bZtI2Bo+OqrT++9f6P9U1oAx98mR03/hH/k7CELjoepElaYEYqZPmfbs3s3GTygvwwZ2F+K8gvQs00PZu9XOFgSrNJAZXCAwn147ZiOthSBABAExp69+zCU3AuFOKAliPMMu3fv+Z8YTazHsLJy3bp1w623fX+5E8u5LW/+PCli+tejhg40PgMA/BLlhdPl3VlWrNEKIenRrSvKSV/p36eX/q2uA22mR+u8Qico2B6xjKMqA1oFQT2Cif0oD3yszeDrw4cPqbLs2LnrX7ds2fr1hg0bqtZ9/PF9GO7m0vbWml/Eh03bOHLIABnar4d4jxsq0wM89euCXR98QD2IbVL5tcHuDz+kfztj954DWi5oEhWEToAQCntKuq2TXyAQVIZ9+/YpRDxv2/Ydf9q8Zct6lInyr776aoj1tu4v98KypCH3gdgAp1nPr1m85blX3pLU7FLp06u3jlzsoSyBICRdHvhH/e7n9h17FAwDhQHjsDXnwNY2k3woRTjoIzincbT9uMKwafPmT9evX5//1VcfDbDexv3lXl2qm2ZHjBo1Tv7+b/5Gn6/wvxppSdG5Dv4SdVf4kZ/ro/jNW7brsw5bJXSEAUiOYJ0QMOgz+Ei+He3W7Tt+v3Hzlo83btxY9Pnnn9+9P2R2f/nfX5ork3tETfNtGzawrw5l1YD+8gHp1a0LvEVP6du7p/To8oBEhITIli079NtMajatICDHjp/Ur+6dADQ7du3+bsvW7e+hTGR/8sk7fa3b3F/+GpeXFtT2iw2dcnz44P4KA389gf81yHn4wKtjBvd423t0z5l1leVHDxw8qmBwSEpVuHj5qpw6c5YzkN/t2LHrrc2bNyd/+umn9963p+8v/+fLE61FA8MDfU74uDrdmOwx4rfBbv3ja4Ie7Grt/tkXX2x12n/gyM0//cu/6Z9Rgoe4vmfv3jd279iRvHXrlz2sw+4vP8VldXTvh18v7NXNevmflvb2005Xr15vOH78eOTh7dsftjbfX+4v95f/b5af/ez/AWuswsjtQib3AAAAAElFTkSuQmCC;" vertex="1" parent="1">
          <mxGeometry x="340" y="168" width="77.91" height="50" as="geometry" />
        </mxCell>
        <mxCell id="9kA3Kka6Xvjqhs1QfRO9-21" style="edgeStyle=none;rounded=0;orthogonalLoop=1;jettySize=auto;html=1;exitX=0.55;exitY=0.95;exitDx=0;exitDy=0;exitPerimeter=0;entryX=0.5;entryY=0;entryDx=0;entryDy=0;fontSize=10;endArrow=none;endFill=0;dashed=1;" edge="1" parent="1">
          <mxGeometry relative="1" as="geometry">
            <mxPoint x="499.5" y="215.14999999999998" as="sourcePoint" />
            <mxPoint x="500" y="250" as="targetPoint" />
          </mxGeometry>
        </mxCell>
        <mxCell id="9kA3Kka6Xvjqhs1QfRO9-23" style="edgeStyle=none;rounded=0;orthogonalLoop=1;jettySize=auto;html=1;exitX=0.875;exitY=0.5;exitDx=0;exitDy=0;exitPerimeter=0;entryX=0;entryY=0.5;entryDx=0;entryDy=0;entryPerimeter=0;dashed=1;fontSize=10;endArrow=none;endFill=0;" edge="1" parent="1" source="9kA3Kka6Xvjqhs1QfRO9-13" target="9kA3Kka6Xvjqhs1QfRO9-22">
          <mxGeometry relative="1" as="geometry" />
        </mxCell>
        <mxCell id="9kA3Kka6Xvjqhs1QfRO9-13" value="&lt;font style=&quot;font-size: 10px&quot;&gt;SqNet WiFI&lt;/font&gt;" style="ellipse;shape=cloud;whiteSpace=wrap;html=1;fillColor=#dae8fc;strokeColor=#6c8ebf;" vertex="1" parent="1">
          <mxGeometry x="450" y="161" width="90" height="57" as="geometry" />
        </mxCell>
        <mxCell id="9kA3Kka6Xvjqhs1QfRO9-19" value="" style="group" vertex="1" connectable="0" parent="1">
          <mxGeometry x="425" y="259" width="144" height="20" as="geometry" />
        </mxCell>
        <mxCell id="9kA3Kka6Xvjqhs1QfRO9-15" value="" style="fontColor=#0066CC;verticalAlign=top;verticalLabelPosition=bottom;labelPosition=center;align=center;html=1;outlineConnect=0;fillColor=#CCCCCC;strokeColor=#6881B3;gradientColor=none;gradientDirection=north;strokeWidth=2;shape=mxgraph.networks.security_camera;fontSize=10;" vertex="1" parent="9kA3Kka6Xvjqhs1QfRO9-19">
          <mxGeometry width="30" height="20" as="geometry" />
        </mxCell>
        <mxCell id="9kA3Kka6Xvjqhs1QfRO9-16" value="" style="fontColor=#0066CC;verticalAlign=top;verticalLabelPosition=bottom;labelPosition=center;align=center;html=1;outlineConnect=0;fillColor=#CCCCCC;strokeColor=#6881B3;gradientColor=none;gradientDirection=north;strokeWidth=2;shape=mxgraph.networks.security_camera;fontSize=10;" vertex="1" parent="9kA3Kka6Xvjqhs1QfRO9-19">
          <mxGeometry x="39" width="30" height="20" as="geometry" />
        </mxCell>
        <mxCell id="9kA3Kka6Xvjqhs1QfRO9-17" value="" style="fontColor=#0066CC;verticalAlign=top;verticalLabelPosition=bottom;labelPosition=center;align=center;html=1;outlineConnect=0;fillColor=#CCCCCC;strokeColor=#6881B3;gradientColor=none;gradientDirection=north;strokeWidth=2;shape=mxgraph.networks.security_camera;fontSize=10;" vertex="1" parent="9kA3Kka6Xvjqhs1QfRO9-19">
          <mxGeometry x="78" width="30" height="20" as="geometry" />
        </mxCell>
        <mxCell id="9kA3Kka6Xvjqhs1QfRO9-18" value="" style="fontColor=#0066CC;verticalAlign=top;verticalLabelPosition=bottom;labelPosition=center;align=center;html=1;outlineConnect=0;fillColor=#CCCCCC;strokeColor=#6881B3;gradientColor=none;gradientDirection=north;strokeWidth=2;shape=mxgraph.networks.security_camera;fontSize=10;" vertex="1" parent="9kA3Kka6Xvjqhs1QfRO9-19">
          <mxGeometry x="114" width="30" height="20" as="geometry" />
        </mxCell>
        <mxCell id="9kA3Kka6Xvjqhs1QfRO9-22" value="Administration" style="sketch=0;pointerEvents=1;shadow=0;dashed=0;html=1;strokeColor=none;labelPosition=center;verticalLabelPosition=bottom;verticalAlign=top;align=center;fillColor=#515151;shape=mxgraph.mscae.system_center.admin_console;fontSize=10;" vertex="1" parent="1">
          <mxGeometry x="600" y="171" width="50" height="36" as="geometry" />
        </mxCell>
      </root>
    </mxGraphModel>
  </diagram>
</mxfile>
